<mxfile host="app.diagrams.net" agent="Mozilla/5.0 (Macintosh; Intel Mac OS X 10_15_7) AppleWebKit/537.36 (KHTML, like Gecko) Chrome/126.0.0.0 Safari/537.36" version="24.7.6">
  <diagram name="Page-1" id="KIUxzE9jhYFrJ5rJYilU">
    <mxGraphModel dx="2043" dy="1760" grid="1" gridSize="10" guides="1" tooltips="1" connect="1" arrows="1" fold="1" page="1" pageScale="1" pageWidth="850" pageHeight="1100" math="0" shadow="0">
      <root>
        <mxCell id="0" />
        <mxCell id="1" parent="0" />
        <mxCell id="7yV_IbDgli-HpZ-EVG7C-1" value="Streaming Data Source" style="whiteSpace=wrap;html=1;aspect=fixed;" vertex="1" parent="1">
          <mxGeometry x="100" y="160" width="80" height="80" as="geometry" />
        </mxCell>
        <mxCell id="7yV_IbDgli-HpZ-EVG7C-2" value="AWS Kinesis Streams" style="whiteSpace=wrap;html=1;aspect=fixed;" vertex="1" parent="1">
          <mxGeometry x="280" y="160" width="80" height="80" as="geometry" />
        </mxCell>
        <mxCell id="7yV_IbDgli-HpZ-EVG7C-3" value="Usually business front end services&lt;div&gt;Mock with python local calls&lt;/div&gt;" style="text;strokeColor=none;align=center;fillColor=none;html=1;verticalAlign=middle;whiteSpace=wrap;rounded=0;" vertex="1" parent="1">
          <mxGeometry x="-10" y="240" width="300" height="30" as="geometry" />
        </mxCell>
        <mxCell id="7yV_IbDgli-HpZ-EVG7C-4" value="Kinesis Firehose" style="whiteSpace=wrap;html=1;aspect=fixed;" vertex="1" parent="1">
          <mxGeometry x="450" y="160" width="80" height="80" as="geometry" />
        </mxCell>
        <mxCell id="7yV_IbDgli-HpZ-EVG7C-5" value="Offline data storage (S3)" style="whiteSpace=wrap;html=1;aspect=fixed;" vertex="1" parent="1">
          <mxGeometry x="620" y="160" width="80" height="80" as="geometry" />
        </mxCell>
        <mxCell id="7yV_IbDgli-HpZ-EVG7C-6" value="AWS Athena" style="whiteSpace=wrap;html=1;aspect=fixed;" vertex="1" parent="1">
          <mxGeometry x="790" y="160" width="80" height="80" as="geometry" />
        </mxCell>
        <mxCell id="7yV_IbDgli-HpZ-EVG7C-7" value="AWS Glue Catalog Crawler" style="whiteSpace=wrap;html=1;aspect=fixed;" vertex="1" parent="1">
          <mxGeometry x="620" y="-10" width="80" height="80" as="geometry" />
        </mxCell>
        <mxCell id="7yV_IbDgli-HpZ-EVG7C-8" value="AWS Lambda Processor" style="whiteSpace=wrap;html=1;aspect=fixed;" vertex="1" parent="1">
          <mxGeometry x="430" y="390" width="80" height="80" as="geometry" />
        </mxCell>
        <mxCell id="7yV_IbDgli-HpZ-EVG7C-9" value="Online Storage (DynamoDB)" style="whiteSpace=wrap;html=1;aspect=fixed;" vertex="1" parent="1">
          <mxGeometry x="630" y="390" width="80" height="80" as="geometry" />
        </mxCell>
        <mxCell id="7yV_IbDgli-HpZ-EVG7C-10" value="Feature Store" style="whiteSpace=wrap;html=1;aspect=fixed;" vertex="1" parent="1">
          <mxGeometry x="967" y="260" width="80" height="80" as="geometry" />
        </mxCell>
        <mxCell id="7yV_IbDgli-HpZ-EVG7C-14" value="" style="rounded=0;whiteSpace=wrap;html=1;fillColor=none;dashed=1;" vertex="1" parent="1">
          <mxGeometry x="40" y="140" width="520" height="140" as="geometry" />
        </mxCell>
        <mxCell id="7yV_IbDgli-HpZ-EVG7C-15" value="Modeled after Kafka&lt;div&gt;Guaranteed Delivery but not exactly once&amp;nbsp;&lt;/div&gt;" style="text;strokeColor=none;align=center;fillColor=none;html=1;verticalAlign=middle;whiteSpace=wrap;rounded=0;" vertex="1" parent="1">
          <mxGeometry x="140" y="100" width="310" height="30" as="geometry" />
        </mxCell>
        <mxCell id="7yV_IbDgli-HpZ-EVG7C-16" value="" style="endArrow=classic;html=1;rounded=0;entryX=0.788;entryY=0.429;entryDx=0;entryDy=0;entryPerimeter=0;exitX=0.615;exitY=0.429;exitDx=0;exitDy=0;exitPerimeter=0;" edge="1" parent="1" source="7yV_IbDgli-HpZ-EVG7C-14" target="7yV_IbDgli-HpZ-EVG7C-14">
          <mxGeometry width="50" height="50" relative="1" as="geometry">
            <mxPoint x="380" y="220" as="sourcePoint" />
            <mxPoint x="430" y="170" as="targetPoint" />
          </mxGeometry>
        </mxCell>
        <mxCell id="7yV_IbDgli-HpZ-EVG7C-17" value="" style="endArrow=classic;html=1;rounded=0;entryX=0.788;entryY=0.429;entryDx=0;entryDy=0;entryPerimeter=0;exitX=0.615;exitY=0.429;exitDx=0;exitDy=0;exitPerimeter=0;" edge="1" parent="1">
          <mxGeometry width="50" height="50" relative="1" as="geometry">
            <mxPoint x="190" y="199.5" as="sourcePoint" />
            <mxPoint x="280" y="199.5" as="targetPoint" />
          </mxGeometry>
        </mxCell>
        <mxCell id="7yV_IbDgli-HpZ-EVG7C-18" value="" style="endArrow=classic;html=1;rounded=0;entryX=0.788;entryY=0.429;entryDx=0;entryDy=0;entryPerimeter=0;exitX=0.615;exitY=0.429;exitDx=0;exitDy=0;exitPerimeter=0;" edge="1" parent="1">
          <mxGeometry width="50" height="50" relative="1" as="geometry">
            <mxPoint x="530" y="199.5" as="sourcePoint" />
            <mxPoint x="620" y="199.5" as="targetPoint" />
          </mxGeometry>
        </mxCell>
        <mxCell id="7yV_IbDgli-HpZ-EVG7C-19" value="" style="endArrow=classic;html=1;rounded=0;entryX=0.788;entryY=0.429;entryDx=0;entryDy=0;entryPerimeter=0;exitX=0.615;exitY=0.429;exitDx=0;exitDy=0;exitPerimeter=0;" edge="1" parent="1">
          <mxGeometry width="50" height="50" relative="1" as="geometry">
            <mxPoint x="700" y="199.5" as="sourcePoint" />
            <mxPoint x="790" y="199.5" as="targetPoint" />
          </mxGeometry>
        </mxCell>
        <mxCell id="7yV_IbDgli-HpZ-EVG7C-20" value="" style="endArrow=classic;html=1;rounded=0;entryX=1;entryY=0.5;entryDx=0;entryDy=0;exitX=0.425;exitY=-0.037;exitDx=0;exitDy=0;exitPerimeter=0;" edge="1" parent="1" source="7yV_IbDgli-HpZ-EVG7C-6" target="7yV_IbDgli-HpZ-EVG7C-7">
          <mxGeometry width="50" height="50" relative="1" as="geometry">
            <mxPoint x="800" y="140" as="sourcePoint" />
            <mxPoint x="890" y="140" as="targetPoint" />
            <Array as="points">
              <mxPoint x="824" y="30" />
            </Array>
          </mxGeometry>
        </mxCell>
        <mxCell id="7yV_IbDgli-HpZ-EVG7C-21" value="" style="endArrow=classic;html=1;rounded=0;entryX=0.5;entryY=0;entryDx=0;entryDy=0;exitX=0.5;exitY=1;exitDx=0;exitDy=0;" edge="1" parent="1" source="7yV_IbDgli-HpZ-EVG7C-7" target="7yV_IbDgli-HpZ-EVG7C-5">
          <mxGeometry width="50" height="50" relative="1" as="geometry">
            <mxPoint x="660" y="80" as="sourcePoint" />
            <mxPoint x="740" y="70" as="targetPoint" />
          </mxGeometry>
        </mxCell>
        <mxCell id="7yV_IbDgli-HpZ-EVG7C-22" value="" style="endArrow=classic;html=1;rounded=0;entryX=0.413;entryY=-0.012;entryDx=0;entryDy=0;entryPerimeter=0;exitX=0.615;exitY=0.429;exitDx=0;exitDy=0;exitPerimeter=0;" edge="1" parent="1" target="7yV_IbDgli-HpZ-EVG7C-10">
          <mxGeometry width="50" height="50" relative="1" as="geometry">
            <mxPoint x="869" y="199.5" as="sourcePoint" />
            <mxPoint x="959" y="199.5" as="targetPoint" />
            <Array as="points">
              <mxPoint x="1000" y="200" />
            </Array>
          </mxGeometry>
        </mxCell>
        <mxCell id="7yV_IbDgli-HpZ-EVG7C-23" value="" style="endArrow=classic;html=1;rounded=0;entryX=0;entryY=0.5;entryDx=0;entryDy=0;exitX=0.577;exitY=0.714;exitDx=0;exitDy=0;exitPerimeter=0;" edge="1" parent="1" source="7yV_IbDgli-HpZ-EVG7C-14" target="7yV_IbDgli-HpZ-EVG7C-8">
          <mxGeometry width="50" height="50" relative="1" as="geometry">
            <mxPoint x="420" y="260" as="sourcePoint" />
            <mxPoint x="510" y="260" as="targetPoint" />
            <Array as="points">
              <mxPoint x="340" y="430" />
            </Array>
          </mxGeometry>
        </mxCell>
        <mxCell id="7yV_IbDgli-HpZ-EVG7C-24" value="" style="endArrow=classic;html=1;rounded=0;entryX=0;entryY=0.5;entryDx=0;entryDy=0;exitX=0.615;exitY=0.429;exitDx=0;exitDy=0;exitPerimeter=0;" edge="1" parent="1" target="7yV_IbDgli-HpZ-EVG7C-9">
          <mxGeometry width="50" height="50" relative="1" as="geometry">
            <mxPoint x="510" y="429.5" as="sourcePoint" />
            <mxPoint x="600" y="429.5" as="targetPoint" />
          </mxGeometry>
        </mxCell>
        <mxCell id="7yV_IbDgli-HpZ-EVG7C-25" value="" style="endArrow=classic;html=1;rounded=0;exitX=0.615;exitY=0.429;exitDx=0;exitDy=0;exitPerimeter=0;entryX=0.363;entryY=1.025;entryDx=0;entryDy=0;entryPerimeter=0;" edge="1" parent="1" target="7yV_IbDgli-HpZ-EVG7C-10">
          <mxGeometry width="50" height="50" relative="1" as="geometry">
            <mxPoint x="710" y="429.5" as="sourcePoint" />
            <mxPoint x="800" y="429.5" as="targetPoint" />
            <Array as="points">
              <mxPoint x="996" y="430" />
            </Array>
          </mxGeometry>
        </mxCell>
      </root>
    </mxGraphModel>
  </diagram>
</mxfile>
